<?xml version="1.0" encoding="iso-8859-1"?>
<!-- Generator: Adobe Illustrator 17.1.0, SVG Export Plug-In . SVG Version: 6.00 Build 0)  -->
<!DOCTYPE svg PUBLIC "-//W3C//DTD SVG 1.1//EN" "http://www.w3.org/Graphics/SVG/1.1/DTD/svg11.dtd">
<svg version="1.1" id="Capa_1" xmlns="http://www.w3.org/2000/svg" xmlns:xlink="http://www.w3.org/1999/xlink" x="0px" y="0px"
	 viewBox="0 0 392.858 392.858" style="enable-background:new 0 0 392.858 392.858;" xml:space="preserve">
<path d="M384.791,13.323c-2.664-6.257-11.268-6.257-14.095-6.257c-14.293,0-40.801,7.057-69.179,18.416l-2.59,1.037l-6.409,36.853
	l-12.507-28.617l-4.675,2.254c-10.799,5.207-20.873,10.666-29.943,16.225l-1.927,1.181l-4.583,26.351l-7.922-18.128l-5.067,3.89
	c-4.545,3.487-8.665,6.999-12.248,10.437c-32.082,30.781-98.45,119.881-130.17,179.99l-0.062,0.121
	c-0.117,0.237-0.239,0.492-0.362,0.747L1.24,377.121c-1.766,2.575-1.324,4.659-0.642,5.953c0.883,1.676,2.616,2.718,4.521,2.718
	c1.659,0,2.9-0.772,3.69-1.354l27.522-20.278c1.328-0.978,2.969-2.677,3.901-4.041l52.557-76.852
	c9.315,2.182,23.867,4.846,39.404,4.846c0,0,0,0,0,0c6.96,0,13.433-0.55,19.24-1.634c18.003-3.362,33.5-12.065,47.172-19.744
	c7.506-4.216,14.596-8.197,21.605-11.106l7.055-2.928l-16.589-15.95l40.99,6.336l1.236-0.471
	c38.86-14.799,63.383-21.733,64.407-22.021c5.896-1.655,20.087-21.835,24.295-27.981l2.413-3.523l-26.181-24.767l37.518,6.573
	l1.743-3.05c3.12-5.458,6.107-11.017,8.881-16.521l2.118-4.203l-29.938-17.426l38.669-2.208l1.168-2.988
	C395.191,80.532,397.476,43.127,384.791,13.323z"/>
<g>
</g>
<g>
</g>
<g>
</g>
<g>
</g>
<g>
</g>
<g>
</g>
<g>
</g>
<g>
</g>
<g>
</g>
<g>
</g>
<g>
</g>
<g>
</g>
<g>
</g>
<g>
</g>
<g>
</g>
</svg>
